<svg width="40" height="40" viewBox="0 0 40 40" fill="none" xmlns="http://www.w3.org/2000/svg">
<path d="M32.5401 0H6.77956C3.03531 0 0 3.07321 0 6.86421V32.9465C0 36.7375 3.03531 39.8107 6.77956 39.8107H32.5401C36.2844 39.8107 39.3197 36.7375 39.3197 32.9465V6.86421C39.3197 3.07321 36.2844 0 32.5401 0Z" fill="url(#paint0_linear_2098_1479)"/>
<g opacity="0.68">
<path opacity="0.68" d="M21.171 19.8384L11.4893 29.5937L24.409 22.969L21.171 19.8384Z" fill="white"/>
<path opacity="0.68" d="M11.4891 29.6562C11.4764 29.6554 11.4646 29.6498 11.4559 29.6404C11.4472 29.6311 11.4424 29.6187 11.4424 29.6059C11.4429 29.5935 11.4481 29.5819 11.457 29.5734L21.1387 19.8062C21.1479 19.7977 21.1599 19.793 21.1723 19.793C21.1847 19.793 21.1967 19.7977 21.2059 19.8062L24.4468 22.9368C24.4552 22.9461 24.4598 22.9582 24.4598 22.9708C24.4598 22.9834 24.4552 22.9955 24.4468 23.0048L11.5125 29.6502L11.4891 29.6562ZM21.1738 19.9008L11.7344 29.4256L24.33 22.9575L21.1738 19.9008Z" fill="white"/>
</g>
<g opacity="0.42">
<path opacity="0.42" d="M10.8613 9.87646V29.6443L20.8701 19.5461L10.8613 9.87646Z" fill="white"/>
<path opacity="0.42" d="M10.8612 29.6918H10.8437C10.8354 29.6877 10.8283 29.6814 10.8232 29.6736C10.818 29.6658 10.815 29.6568 10.8145 29.6475V9.87667C10.8144 9.86716 10.8171 9.85785 10.8223 9.84994C10.8275 9.84203 10.8349 9.83589 10.8437 9.83233C10.8515 9.82735 10.8606 9.82471 10.8699 9.82471C10.8792 9.82471 10.8883 9.82735 10.8962 9.83233L20.905 19.5108C20.9143 19.5202 20.9195 19.533 20.9196 19.5463C20.9191 19.5586 20.9138 19.5703 20.905 19.5788L10.8962 29.68C10.8865 29.6884 10.8739 29.6926 10.8612 29.6918ZM10.9079 9.98605V29.5293L20.8028 19.5492L10.9079 9.98605Z" fill="white"/>
</g>
<path d="M11.3867 9.79639L24.8174 22.7621L30.7327 19.7232L11.3867 9.79639Z" fill="white"/>
<path d="M24.8176 22.8157C24.8054 22.8153 24.7939 22.8099 24.7855 22.801L11.3549 9.8293C11.3465 9.82003 11.3418 9.8079 11.3418 9.7953C11.3418 9.78271 11.3465 9.77058 11.3549 9.76131C11.3625 9.75555 11.3717 9.75244 11.3812 9.75244C11.3906 9.75244 11.3999 9.75555 11.4074 9.76131L30.7417 19.694C30.7499 19.6972 30.7569 19.7029 30.7616 19.7103C30.7663 19.7178 30.7686 19.7266 30.768 19.7354C30.7683 19.7446 30.766 19.7537 30.7614 19.7615C30.7567 19.7694 30.7499 19.7757 30.7417 19.7798L24.8176 22.8098V22.8157ZM11.6468 9.98598L24.8176 22.7093L30.6191 19.7295L11.6468 9.98598Z" fill="white"/>
<defs>
<linearGradient id="paint0_linear_2098_1479" x1="2.24233" y1="2.16687" x2="37.562" y2="37.2203" gradientUnits="userSpaceOnUse">
<stop stop-color="#5E95FF"/>
<stop offset="1" stop-color="#2959B1"/>
</linearGradient>
</defs>
</svg>
