<svg width="35" height="42" viewBox="0 0 35 42" fill="none" xmlns="http://www.w3.org/2000/svg">
<path d="M33.4858 14.6776C33.3013 14.7931 28.9093 17.2306 28.9093 22.6351C29.1163 28.7986 34.4518 30.9601 34.5433 30.9601C34.4518 31.0756 33.7378 33.9046 31.6228 36.8701C29.9443 39.4246 28.0813 42.0001 25.2523 42.0001C22.5613 42.0001 21.5953 40.2976 18.4903 40.2976C15.1558 40.2976 14.2123 42.0001 11.6593 42.0001C8.83031 42.0001 6.82931 39.2866 5.05931 36.7561C2.75981 33.4441 0.805312 28.2466 0.736312 23.2561C0.689812 20.6116 1.19681 18.0121 2.48381 15.8041C4.30031 12.7216 7.54331 10.6291 11.0848 10.5601C13.7983 10.4686 16.2133 12.4231 17.8693 12.4231C19.4563 12.4231 22.4233 10.5601 25.7803 10.5601C27.2293 10.5616 31.0933 10.9981 33.4858 14.6776ZM17.6398 10.0321C17.1568 7.61706 18.4903 5.20206 19.7323 3.66156C21.3193 1.79856 23.8258 0.534058 25.9873 0.534058C26.1253 2.94906 25.2508 5.31756 23.6878 7.04256C22.2853 8.90556 19.8703 10.3081 17.6398 10.0321Z" fill="white"/>
</svg>
