<svg xmlns="http://www.w3.org/2000/svg" viewBox="0 0 20.93 20.93">
    <defs>
        <style>.cls-1{fill:#fff;}.cls-2{fill:#89939e;}</style>
    </defs>
    <g id="Layer_1-2">
        <g>
            <circle class="cls-2" cx="10.47" cy="10.47" r="10.47"/>
            <g>
                <path class="cls-1"
                      d="M7.43,8.02h-1.11v-1.35c0-.13-.15-.24-.34-.24s-.34,.11-.34,.24v1.35h-1.11c-.19,0-.34,.11-.34,.24v4.42c0,.13,.15,.24,.34,.24h1.11v1.17c0,.13,.15,.24,.34,.24s.34-.11,.34-.24v-1.17h1.11c.19,0,.34-.11,.34-.24v-4.42c0-.13-.15-.24-.34-.24Zm-.34,4.42h-2.21v-3.93h2.21v3.93Zm9.3-4.42h-1.11v-1.24c0-.13-.15-.24-.34-.24s-.34,.11-.34,.24v1.24h-1.11c-.19,0-.34,.11-.34,.24v4.42c0,.13,.15,.24,.34,.24h1.11v1.28c0,.13,.15,.24,.34,.24s.34-.11,.34-.24v-1.28h1.11c.19,0,.34-.11,.34-.24v-4.42c0-.13-.15-.24-.34-.24Zm-.34,4.42h-2.21v-3.93h2.21v3.93Zm-4.19-6.07h-1.11v-2.31c0-.12-.14-.22-.3-.22h-.07c-.17,0-.3,.1-.3,.22v2.31h-1.11c-.19,0-.34,.11-.34,.24v7.73c0,.13,.15,.24,.34,.24h1.11v2.28c0,.13,.15,.24,.34,.24s.34-.11,.34-.24v-2.28h1.11c.19,0,.34-.11,.34-.24V6.6c0-.13-.15-.24-.34-.24Zm-.34,7.73h-2.21V6.84h2.21v7.24Z"/>
                <path class="cls-1" d="M11.81,6.68h-2.68v7.58h2.68V6.68Z"/>
                <path class="cls-1" d="M16.73,8.26h-3.58v4.42h3.58v-4.42Z"/>
                <path class="cls-1" d="M7.78,8.26h-3.58v4.42h3.58v-4.42Z"/>
            </g>
        </g>
    </g>
</svg>
