<svg width="44" height="45" viewBox="0 0 44 45" fill="none" xmlns="http://www.w3.org/2000/svg">
<path d="M36.4135 0H7.58654C3.39661 0 0 3.43902 0 7.68128V36.8681C0 41.1104 3.39661 44.5494 7.58654 44.5494H36.4135C40.6034 44.5494 44 41.1104 44 36.8681V7.68128C44 3.43902 40.6034 0 36.4135 0Z" fill="#558AF2"/>
<g opacity="0.68">
<path d="M23.6916 22.1996L12.8574 33.1161L27.315 25.7028L23.6916 22.1996Z" fill="white"/>
<path d="M23.6916 22.1996L12.8574 33.1161L27.315 25.7028L23.6916 22.1996Z" fill="white"/>
<path opacity="0.68" d="M12.857 33.1859C12.8428 33.1851 12.8295 33.1788 12.8198 33.1683C12.8101 33.1579 12.8047 33.144 12.8047 33.1297C12.8052 33.1158 12.8111 33.1028 12.821 33.0933L23.6552 22.1635C23.6655 22.154 23.6789 22.1487 23.6928 22.1487C23.7067 22.1487 23.7201 22.154 23.7304 22.1635L27.357 25.6667C27.3664 25.6771 27.3716 25.6907 27.3716 25.7048C27.3716 25.7189 27.3664 25.7324 27.357 25.7428L12.8831 33.1793L12.857 33.1859ZM23.6944 22.2694L13.1314 32.9279L27.2263 25.6899L23.6944 22.2694Z" fill="white"/>
</g>
<g opacity="0.42">
<path d="M12.1553 11.0513V33.1721L23.3554 21.8719L12.1553 11.0513Z" fill="white"/>
<path d="M12.1553 11.0513V33.1721L23.3554 21.8719L12.1553 11.0513Z" fill="white"/>
<path opacity="0.42" d="M12.1548 33.2254H12.1352C12.1259 33.2207 12.118 33.2137 12.1123 33.205C12.1066 33.1963 12.1032 33.1862 12.1025 33.1758V11.0516C12.1024 11.0409 12.1055 11.0305 12.1113 11.0216C12.1171 11.0128 12.1255 11.0059 12.1352 11.0019C12.144 10.9964 12.1542 10.9934 12.1646 10.9934C12.175 10.9934 12.1852 10.9964 12.194 11.0019L23.3941 21.8325C23.4046 21.843 23.4104 21.8573 23.4105 21.8722C23.4099 21.886 23.4041 21.8991 23.3941 21.9086L12.194 33.2121C12.1831 33.2215 12.1691 33.2262 12.1548 33.2254ZM12.2071 11.174V33.0434L23.2798 21.8755L12.2071 11.174Z" fill="white"/>
</g>
<path d="M12.7441 10.9617L27.7735 25.4707L34.3929 22.0701L12.7441 10.9617Z" fill="white"/>
<path d="M27.7723 25.5311C27.7586 25.5305 27.7457 25.5246 27.7363 25.5146L12.707 10.9989C12.6976 10.9885 12.6924 10.9749 12.6924 10.9608C12.6924 10.9467 12.6976 10.9331 12.707 10.9228C12.7155 10.9163 12.7258 10.9128 12.7364 10.9128C12.747 10.9128 12.7573 10.9163 12.7658 10.9228L34.4015 22.0378C34.4107 22.0413 34.4185 22.0477 34.4238 22.056C34.4291 22.0644 34.4316 22.0742 34.4309 22.0841C34.4313 22.0944 34.4287 22.1045 34.4235 22.1133C34.4183 22.1222 34.4107 22.1292 34.4015 22.1337L27.7723 25.5245V25.5311ZM13.0337 11.1742L27.7723 25.412L34.2643 22.0775L13.0337 11.1742Z" fill="white"/>
</svg>
