<svg width="121" height="34" viewBox="0 0 121 34" fill="none" xmlns="http://www.w3.org/2000/svg">
<path fill-rule="evenodd" clip-rule="evenodd" d="M4.83516 0H115.238C117.909 0 120.073 2.16454 120.073 4.83516V28.2051C120.073 30.8757 117.909 33.0403 115.238 33.0403H4.83516C2.16454 33.0403 0 30.8757 0 28.2051V4.83516C0 2.16454 2.16454 0 4.83516 0Z" fill="#32364E"/>
<path fill-rule="evenodd" clip-rule="evenodd" d="M57.5408 21.456H56.3626L57.2749 19.2028L55.4593 14.6215H56.7043L57.8454 17.7394L58.9954 14.6215H60.2404L57.5408 21.456ZM53.0159 19.4881C52.6073 19.4881 52.1891 19.3366 51.8087 19.0416V19.3745H50.5927V12.54H51.8087V14.9455C52.1891 14.6602 52.6073 14.5079 53.0159 14.5079C54.29 14.5079 55.1643 15.5345 55.1643 16.998C55.1643 18.4614 54.29 19.4881 53.0159 19.4881ZM52.7596 15.5531C52.4268 15.5531 52.094 15.6957 51.8087 15.981V18.015C52.094 18.3002 52.4268 18.4429 52.7596 18.4429C53.4438 18.4429 53.9193 17.8538 53.9193 16.998C53.9193 16.143 53.4438 15.5531 52.7596 15.5531ZM45.6681 19.0416C45.2974 19.3366 44.8791 19.4881 44.4609 19.4881C43.1965 19.4881 42.3133 18.4614 42.3133 16.998C42.3133 15.5345 43.1965 14.5079 44.4609 14.5079C44.8791 14.5079 45.2974 14.6602 45.6681 14.9455V12.54H46.8946V19.3745H45.6681V19.0416ZM45.6681 15.981C45.3925 15.6957 45.0596 15.5531 44.7268 15.5531C44.033 15.5531 43.5583 16.143 43.5583 16.998C43.5583 17.8538 44.033 18.4429 44.7268 18.4429C45.0596 18.4429 45.3925 18.3002 45.6681 18.015V15.981ZM38.425 17.3308C38.5007 18.0528 39.0713 18.5476 39.8699 18.5476C40.3067 18.5476 40.7918 18.3857 41.2858 18.1004V19.1174C40.7443 19.3648 40.2027 19.4881 39.6701 19.4881C38.2348 19.4881 37.2275 18.4429 37.2275 16.9601C37.2275 15.5249 38.2163 14.5079 39.575 14.5079C40.82 14.5079 41.6662 15.487 41.6662 16.8844C41.6662 17.0173 41.6662 17.1688 41.6468 17.3308H38.425ZM39.5274 15.4491C38.9383 15.4491 38.4822 15.8859 38.425 16.5419H40.4969C40.459 15.8956 40.069 15.4491 39.5274 15.4491ZM35.2217 16.1994V19.3745H34.0049V14.6215H35.2217V15.097C35.5634 14.7166 35.9816 14.5079 36.3902 14.5079C36.524 14.5079 36.6569 14.5175 36.7899 14.5554V15.6393C36.6569 15.6006 36.5046 15.5821 36.362 15.5821C35.9631 15.5821 35.5352 15.8005 35.2217 16.1994ZM29.7934 17.3308C29.87 18.0528 30.4397 18.5476 31.2383 18.5476C31.6759 18.5476 32.1602 18.3857 32.655 18.1004V19.1174C32.1127 19.3648 31.5712 19.4881 31.0385 19.4881C29.6032 19.4881 28.5959 18.4429 28.5959 16.9601C28.5959 15.5249 29.5847 14.5079 30.9434 14.5079C32.1892 14.5079 33.0346 15.487 33.0346 16.8844C33.0346 17.0173 33.0346 17.1688 33.0161 17.3308H29.7934ZM30.8958 15.4491C30.3068 15.4491 29.8506 15.8859 29.7934 16.5419H31.8661C31.8274 15.8956 31.4382 15.4491 30.8958 15.4491ZM25.5441 19.3745L24.5747 16.143L23.6149 19.3745H22.5213L20.8871 14.6215H22.1031L23.0637 17.8538L24.0235 14.6215H25.1259L26.0857 17.8538L27.0462 14.6215H28.2623L26.6369 19.3745H25.5441ZM18.1109 19.4881C16.6756 19.4881 15.6586 18.4526 15.6586 16.998C15.6586 15.5345 16.6756 14.5079 18.1109 14.5079C19.5461 14.5079 20.5534 15.5345 20.5534 16.998C20.5534 18.4526 19.5461 19.4881 18.1109 19.4881ZM18.1109 15.5249C17.3977 15.5249 16.9037 16.1236 16.9037 16.998C16.9037 17.8723 17.3977 18.4711 18.1109 18.4711C18.8144 18.4711 19.3084 17.8723 19.3084 16.998C19.3084 16.1236 18.8144 15.5249 18.1109 15.5249ZM12.7688 17.027H11.6753V19.3745H10.4592V12.8349H12.7688C14.0993 12.8349 15.0494 13.6996 15.0494 14.9358C15.0494 16.1712 14.0993 17.027 12.7688 17.027ZM12.5972 13.8237H11.6753V16.0382H12.5972C13.3007 16.0382 13.7947 15.5918 13.7947 14.9358C13.7947 14.2701 13.3007 13.8237 12.5972 13.8237ZM110.263 17.6225H104.421C104.554 19.0215 105.579 19.4333 106.742 19.4333C107.927 19.4333 108.86 19.1843 109.674 18.7733V21.178C108.863 21.6268 107.793 21.9516 106.365 21.9516C103.459 21.9516 101.422 20.1312 101.422 16.5314C101.422 13.4917 103.149 11.0773 105.989 11.0773C108.824 11.0773 110.304 13.4909 110.304 16.5475C110.304 16.836 110.277 17.4613 110.263 17.6225ZM105.97 13.511C105.224 13.511 104.394 14.0743 104.394 15.4193H107.48C107.48 14.0759 106.703 13.511 105.97 13.511ZM96.6879 21.9516C95.6435 21.9516 95.0052 21.5108 94.5765 21.1965L94.5701 24.5739L91.586 25.2089L91.5844 11.2764H94.2131L94.3678 12.0137C94.7812 11.6277 95.5363 11.0773 96.7064 11.0773C98.8025 11.0773 100.777 12.9655 100.777 16.4403C100.777 20.2335 98.8234 21.9516 96.6879 21.9516ZM95.9932 13.7214C95.3074 13.7214 94.8787 13.972 94.5677 14.3129L94.5854 18.7483C94.8747 19.0618 95.2929 19.3148 95.9932 19.3148C97.0965 19.3148 97.8362 18.1133 97.8362 16.5064C97.8362 14.9446 97.0852 13.7214 95.9932 13.7214ZM87.3689 11.2764H90.3651V21.738H87.3689V11.2764ZM87.3689 7.93608L90.3651 7.29865V9.72993L87.3689 10.3666V7.93608ZM84.2736 14.6457V21.738H81.2903V11.2764H83.8707L84.0584 12.1588C84.7563 10.8742 86.1521 11.1345 86.5494 11.2772V14.0203C86.1698 13.8978 84.9787 13.7189 84.2736 14.6457ZM77.9742 18.0674C77.9742 19.8265 79.8575 19.2794 80.2403 19.1263V21.5559C79.8422 21.7743 79.1209 21.9516 78.145 21.9516C76.3738 21.9516 75.0449 20.6469 75.0449 18.8797L75.0578 9.30363L77.9718 8.68472L77.9742 11.2764H80.2411V13.8213H77.9742V18.0674ZM74.3527 18.5767C74.3527 20.7251 72.6426 21.9516 70.1606 21.9516C69.1315 21.9516 68.0065 21.7517 66.8968 21.2739V18.4244C67.8985 18.9691 69.175 19.3777 70.1638 19.3777C70.8294 19.3777 71.3089 19.1988 71.3089 18.6476C71.3089 17.2228 66.7711 17.7595 66.7711 14.4547C66.7711 12.3417 68.3853 11.0773 70.8061 11.0773C71.7949 11.0773 72.7836 11.2296 73.7724 11.6237V14.4345C72.8642 13.9446 71.7119 13.6666 70.8037 13.6666C70.1783 13.6666 69.7899 13.8471 69.7899 14.3137C69.7899 15.6562 74.3527 15.018 74.3527 18.5767Z" fill="white"/>
</svg>
