<svg width="256" height="157" viewBox="0 0 256 157" fill="none" xmlns="http://www.w3.org/2000/svg">
<ellipse cx="137" cy="78.5" rx="78" ry="78.5" fill="#0E3F2D"/>
<path fill-rule="evenodd" clip-rule="evenodd" d="M169.559 44.8549L121.215 91.56L108.386 77.8391C106.023 75.6086 102.31 75.4734 99.609 77.366C96.9757 79.3261 96.233 82.7732 97.8535 85.5444L113.045 110.283C114.531 112.581 117.096 114 120 114C122.768 114 125.401 112.581 126.887 110.283C129.317 107.106 175.703 51.7492 175.703 51.7492C181.779 45.5308 174.42 40.056 169.559 44.7873V44.8549Z" fill="#22C55E"/>
<path d="M234.222 17.8039L235.134 20.9024C235.745 22.981 236.869 24.8729 238.401 26.405C239.933 27.9371 241.825 29.0604 243.904 29.6721L247.002 30.584C247.622 30.7654 247.622 31.6436 247.002 31.8263L243.902 32.7382C241.824 33.3501 239.932 34.4735 238.4 36.0056C236.868 37.5377 235.745 39.4295 235.134 41.5079L234.222 44.6065C234.039 45.2257 233.161 45.2257 232.978 44.6065L232.066 41.5066C231.454 39.4285 230.331 37.5369 228.799 36.0051C227.267 34.4732 225.376 33.35 223.297 32.7382L220.199 31.8263C219.578 31.6449 219.578 30.7667 220.199 30.5827L223.297 29.6708C225.376 29.0592 227.268 27.9361 228.8 26.4042C230.332 24.8724 231.456 22.9807 232.067 20.9024L232.978 17.8039C233.017 17.6693 233.099 17.5511 233.211 17.4671C233.323 17.383 233.46 17.3375 233.6 17.3375C233.74 17.3375 233.876 17.383 233.989 17.4671C234.101 17.5511 234.182 17.6693 234.222 17.8039Z" fill="#22C55E"/>
<path d="M247.849 50.6912L248.411 52.5979C248.787 53.8771 249.478 55.0413 250.421 55.9841C251.364 56.927 252.528 57.6182 253.808 57.9947L255.714 58.5559C256.096 58.6675 256.096 59.2079 255.714 59.3203L253.807 59.8815C252.528 60.2581 251.364 60.9494 250.421 61.8922C249.478 62.835 248.787 63.9992 248.411 65.2783L247.849 67.1851C247.737 67.5661 247.197 67.5661 247.084 67.1851L246.523 65.2775C246.146 63.9986 245.455 62.8346 244.513 61.8919C243.57 60.9492 242.406 60.258 241.127 59.8815L239.22 59.3203C238.838 59.2087 238.838 58.6683 239.22 58.5551L241.127 57.9939C242.406 57.6175 243.57 56.9264 244.513 55.9837C245.456 55.041 246.147 53.8769 246.524 52.5979L247.084 50.6912C247.108 50.6084 247.159 50.5356 247.228 50.4839C247.297 50.4321 247.381 50.4042 247.467 50.4042C247.553 50.4042 247.637 50.4321 247.706 50.4839C247.775 50.5356 247.825 50.6084 247.849 50.6912Z" fill="#22C55E"/>
<path d="M236.212 115.83L236.913 118.213C237.384 119.812 238.248 121.267 239.427 122.446C240.605 123.624 242.06 124.488 243.659 124.959L246.043 125.661C246.519 125.8 246.519 126.476 246.043 126.616L243.658 127.318C242.06 127.788 240.604 128.652 239.426 129.831C238.248 131.009 237.384 132.465 236.913 134.064L236.212 136.447C236.071 136.923 235.396 136.923 235.255 136.447L234.554 134.063C234.083 132.464 233.219 131.009 232.041 129.831C230.862 128.652 229.407 127.788 227.808 127.318L225.425 126.616C224.948 126.477 224.948 125.801 225.425 125.66L227.808 124.958C229.407 124.488 230.863 123.624 232.041 122.445C233.22 121.267 234.084 119.812 234.555 118.213L235.255 115.83C235.285 115.726 235.348 115.635 235.434 115.571C235.521 115.506 235.626 115.471 235.733 115.471C235.841 115.471 235.946 115.506 236.032 115.571C236.119 115.635 236.182 115.726 236.212 115.83Z" fill="#22C55E"/>
<path d="M30.4883 88.2038L31.4003 91.3023C32.012 93.3809 33.1354 95.2728 34.6675 96.8049C36.1997 98.337 38.0916 99.4603 40.1703 100.072L43.2689 100.984C43.8881 101.165 43.8881 102.044 43.2689 102.226L40.169 103.138C38.0906 103.75 36.1989 104.873 34.667 106.406C33.135 107.938 32.0119 109.829 31.4003 111.908L30.4883 115.006C30.3056 115.626 29.4274 115.626 29.2447 115.006L28.3327 111.907C27.7209 109.828 26.5977 107.937 25.0658 106.405C23.5339 104.873 21.6423 103.75 19.564 103.138L16.4654 102.226C15.8449 102.045 15.8449 101.167 16.4654 100.983L19.564 100.071C21.6425 99.4591 23.5344 98.336 25.0665 96.8041C26.5987 95.2723 27.7221 93.3806 28.334 91.3023L29.2447 88.2038C29.2839 88.0692 29.3658 87.951 29.4779 87.867C29.59 87.7829 29.7264 87.7374 29.8665 87.7374C30.0066 87.7374 30.143 87.7829 30.2551 87.867C30.3672 87.951 30.4491 88.0692 30.4883 88.2038Z" fill="#22C55E"/>
<path d="M29.9311 3.91922L30.808 6.89859C31.3962 8.89721 32.4763 10.7164 33.9495 12.1895C35.4227 13.6627 37.242 14.7428 39.2407 15.331L42.2201 16.2079C42.8155 16.3822 42.8155 17.2267 42.2201 17.4023L39.2394 18.2792C37.2409 18.8676 35.422 19.9478 33.949 21.4209C32.476 22.8941 31.396 24.7131 30.808 26.7116L29.9311 29.691C29.7554 30.2863 28.9109 30.2863 28.7353 29.691L27.8584 26.7104C27.2701 24.7121 26.1901 22.8933 24.7171 21.4204C23.2441 19.9474 21.4253 18.8674 19.4269 18.2792L16.4475 17.4023C15.8508 17.228 15.8508 16.3835 16.4475 16.2066L19.4269 15.3297C21.4255 14.7417 23.2446 13.6618 24.7178 12.1888C26.191 10.7159 27.2713 8.89698 27.8596 6.89859L28.7353 3.91922C28.773 3.78986 28.8517 3.67623 28.9595 3.59538C29.0673 3.51453 29.1984 3.47083 29.3332 3.47083C29.4679 3.47083 29.5991 3.51453 29.7069 3.59538C29.8147 3.67623 29.8933 3.78986 29.9311 3.91922Z" fill="#22C55E"/>
<path d="M9.47312 72.0423L10.0694 74.0683C10.4694 75.4274 11.2039 76.6644 12.2057 77.6661C13.2075 78.6679 14.4445 79.4024 15.8036 79.8023L17.8297 80.3986C18.2346 80.5172 18.2346 81.0914 17.8297 81.2109L15.8028 81.8071C14.4438 82.2072 13.2069 82.9417 12.2053 83.9435C11.2037 84.9452 10.4693 86.1822 10.0694 87.5412L9.47312 89.5671C9.35369 89.972 8.77943 89.972 8.66 89.5671L8.06371 87.5403C7.66369 86.1815 6.92926 84.9447 5.92764 83.9431C4.92601 82.9415 3.68918 82.2071 2.33032 81.8071L0.304287 81.2109C-0.101429 81.0923 -0.101429 80.518 0.304287 80.3978L2.33032 79.8015C3.68934 79.4016 4.92634 78.6673 5.92812 77.6657C6.9299 76.6641 7.66446 75.4272 8.06455 74.0683L8.66 72.0423C8.68565 71.9544 8.73915 71.8771 8.81246 71.8221C8.88577 71.7671 8.97493 71.7374 9.06656 71.7374C9.15819 71.7374 9.24736 71.7671 9.32066 71.8221C9.39397 71.8771 9.44746 71.9544 9.47312 72.0423Z" fill="#22C55E"/>
</svg>
