<svg width="23" height="22" viewBox="0 0 23 22" fill="none" xmlns="http://www.w3.org/2000/svg">
<path d="M14.6067 7.03998C14.8267 7.47998 14.9567 7.97998 14.9567 8.50998C14.9467 10.28 13.5567 11.73 11.7967 11.78C11.717 11.77 11.6364 11.77 11.5567 11.78C10.7087 11.7514 9.90491 11.3944 9.31526 10.7842C8.72561 10.174 8.39623 9.35851 8.39671 8.50998C8.39671 6.69998 9.85671 5.22998 11.6767 5.22998M18.4087 18.379C16.571 20.0681 14.1647 21.0034 11.6687 20.999C9.06871 20.999 6.70871 20.009 4.92871 18.379C5.02871 17.439 5.62871 16.519 6.69871 15.799C9.43871 13.979 13.9187 13.979 16.6387 15.799C17.7087 16.519 18.3087 17.439 18.4087 18.379Z" stroke="white" stroke-width="1.5" stroke-linecap="round" stroke-linejoin="round"/>
<path d="M3.66699 5C2.41699 6.67 1.66699 8.75 1.66699 11C1.66699 16.52 6.14699 21 11.667 21C17.187 21 21.667 16.52 21.667 11C21.667 5.48 17.187 1 11.667 1C10.237 1 8.86699 1.3 7.63699 1.85" stroke="white" stroke-width="1.5" stroke-linecap="round" stroke-linejoin="round"/>
</svg>
