<svg width="19" height="20" viewBox="0 0 19 20" fill="none" xmlns="http://www.w3.org/2000/svg">
<path d="M17.3223 7.63794L10.0255 1.25773C9.63253 0.914089 9.04571 0.914089 8.6527 1.25773L1.35597 7.63794C1.12976 7.83574 1 8.1215 1 8.42188V17.3242C1 17.8995 1.46669 18.3659 2.04239 18.3659H6.21195C6.78765 18.3659 7.25434 17.8995 7.25434 17.3242V13.1575C7.25434 12.5822 7.72103 12.1159 8.29673 12.1159H10.3815C10.9572 12.1159 11.4239 12.5822 11.4239 13.1575V17.3242C11.4239 17.8995 11.8906 18.3659 12.4663 18.3659H16.6359C17.2115 18.3659 17.6782 17.8995 17.6782 17.3242V8.42188C17.6782 8.1215 17.5485 7.83574 17.3223 7.63794Z" stroke="#D9D9D9" stroke-width="2" stroke-linecap="round" stroke-linejoin="round"/>
</svg>
