<svg width="23" height="22" viewBox="0 0 23 22" fill="none" xmlns="http://www.w3.org/2000/svg">
<path d="M11.4791 15.1717C13.6885 15.1717 15.4796 13.304 15.4796 11.0002C15.4796 8.69627 13.6885 6.82861 11.4791 6.82861C9.26962 6.82861 7.47852 8.69627 7.47852 11.0002C7.47852 13.304 9.26962 15.1717 11.4791 15.1717Z" stroke="#C7C7C7" stroke-width="2" stroke-linecap="round" stroke-linejoin="round"/>
<path d="M18.6474 6.76601L18.5816 6.64728C18.4002 6.31979 18.3076 5.94704 18.3137 5.5689L18.3437 3.7138C18.3498 3.33468 18.1581 2.98197 17.843 2.79266L15.106 1.14802C14.7917 0.959186 14.404 0.96257 14.0928 1.15687L12.5736 2.10546C12.263 2.29933 11.9079 2.40173 11.546 2.40173H11.4143C11.0515 2.40173 10.6957 2.29889 10.3847 2.10422L8.85842 1.14876C8.54614 0.953264 8.15662 0.950258 7.8416 1.14091L5.11325 2.7921C4.79971 2.98185 4.60919 3.33366 4.61529 3.71162L4.64526 5.5689C4.65136 5.94704 4.55875 6.31979 4.37734 6.64728L4.31244 6.76442C4.13093 7.09209 3.86735 7.36209 3.54994 7.5455L1.99485 8.44412C1.67611 8.62831 1.47867 8.97869 1.47949 9.35867L1.48665 12.6457C1.48748 13.0233 1.68406 13.371 2.00058 13.5546L3.54821 14.4524C3.8667 14.6372 4.13073 14.9091 4.31178 15.239L4.38131 15.3656C4.56017 15.6915 4.65138 16.0616 4.6453 16.437L4.61536 18.2862C4.60922 18.6653 4.80092 19.018 5.116 19.2074L7.853 20.852C8.16727 21.0408 8.55495 21.0374 8.86614 20.8431L10.3854 19.8945C10.6959 19.7007 11.0511 19.5983 11.413 19.5983H11.5447C11.9074 19.5983 12.2633 19.7011 12.5743 19.8958L14.1006 20.8512C14.4128 21.0467 14.8024 21.0497 15.1174 20.8591L17.8457 19.2079C18.1593 19.0181 18.3498 18.6663 18.3437 18.2884L18.3137 16.4311C18.3076 16.053 18.4002 15.6802 18.5816 15.3527L18.6465 15.2356C18.8281 14.9079 19.0916 14.6379 19.409 14.4545L20.9641 13.5559C21.2829 13.3717 21.4803 13.0213 21.4795 12.6413L21.4723 9.35434C21.4715 8.97666 21.2749 8.62896 20.9584 8.44535L19.4071 7.54544C19.0909 7.36204 18.8284 7.09267 18.6474 6.76601Z" stroke="#C7C7C7" stroke-width="2" stroke-linecap="round" stroke-linejoin="round"/>
</svg>
