<svg width="39" height="39" viewBox="0 0 39 39" fill="none" xmlns="http://www.w3.org/2000/svg">
<g clip-path="url(#clip0_2116_16506)">
<path d="M38.7932 19.9301C38.8166 18.5967 38.6762 17.2653 38.3749 15.9647H19.7925V23.1629H30.7002C30.4935 24.425 30.0285 25.6331 29.3332 26.7146C28.6378 27.796 27.7264 28.7285 26.6538 29.4559L26.6158 29.697L32.4916 34.1576L32.8984 34.1975C36.6367 30.8138 38.7924 25.8352 38.7924 19.9301" fill="#4285F4"/>
<path d="M19.7925 38.8966C25.1363 38.8966 29.6226 37.1724 32.8996 34.1982L26.6539 29.4566C24.9827 30.5992 22.7395 31.3966 19.7925 31.3966C17.2897 31.3823 14.855 30.5959 12.8339 29.1491C10.8128 27.7022 9.30789 25.6684 8.53274 23.3362L8.30078 23.3556L2.19118 27.9891L2.11133 28.2067C3.75679 31.4205 6.28203 34.1224 9.40468 36.0102C12.5273 37.8981 16.1243 38.8975 19.7933 38.8966" fill="#34A853"/>
<path d="M8.53302 23.3362C8.1001 22.1016 7.87671 20.8057 7.87175 19.5002C7.87972 18.1968 8.09486 16.9025 8.50944 15.6641L8.49841 15.4069L2.3139 10.6989L2.11161 10.7931C0.723519 13.4939 0.000488281 16.4759 0.000488281 19.5C0.000488281 22.524 0.723519 25.506 2.11161 28.2068L8.53302 23.3362Z" fill="#FBBC05"/>
<path d="M19.7923 7.60352C22.6284 7.56036 25.3713 8.59546 27.4454 10.4916L33.0314 5.14663C29.4487 1.85287 24.7044 0.0456259 19.7923 0.103522C16.1233 0.102667 12.5264 1.102 9.40377 2.98977C6.28113 4.87754 3.75587 7.57934 2.11035 10.7931L8.51046 15.664C9.29325 13.3321 10.8031 11.2999 12.8272 9.85375C14.8513 8.40761 17.2875 7.62055 19.7923 7.60352Z" fill="#EB4335"/>
</g>
<defs>
<clipPath id="clip0_2116_16506">
<rect width="38.7931" height="38.7931" fill="white" transform="translate(0 0.103516)"/>
</clipPath>
</defs>
</svg>
